<mxfile host="app.diagrams.net" agent="Mozilla/5.0 (Windows NT 10.0; Win64; x64) AppleWebKit/537.36 (KHTML, like Gecko) Chrome/136.0.0.0 Safari/537.36" version="27.1.1">
  <diagram name="Page-1" id="taYUtSJ_4CDuhA6wjiIW">
    <mxGraphModel dx="6380" dy="3220" grid="1" gridSize="10" guides="1" tooltips="1" connect="1" arrows="1" fold="1" page="1" pageScale="1" pageWidth="850" pageHeight="1100" math="0" shadow="0" adaptiveColors="auto">
      <root>
        <mxCell id="0" />
        <mxCell id="1" parent="0" />
        <mxCell id="h_4dqQD72bOemCukOD2A-11" value="&lt;h1 style=&quot;margin-top: 0px;&quot;&gt;Level 5&lt;/h1&gt;&lt;div&gt;Featuring a maze, requiring player to find items around the maze to be able to access the final level&amp;nbsp;&lt;/div&gt;&lt;div&gt;multiple type of enemy is placed around&lt;/div&gt;" style="text;html=1;whiteSpace=wrap;overflow=hidden;rounded=0;" parent="1" vertex="1">
          <mxGeometry x="-620" y="991.45" width="620" height="310" as="geometry" />
        </mxCell>
        <mxCell id="E4qFbeiB4ODEOkEXqFHY-1" value="&lt;h1 style=&quot;margin-top: 0px;&quot;&gt;&lt;span style=&quot;background-color: transparent; color: light-dark(rgb(0, 0, 0), rgb(255, 255, 255));&quot;&gt;UI&lt;/span&gt;&lt;/h1&gt;" style="text;html=1;whiteSpace=wrap;overflow=hidden;rounded=0;align=center;" parent="1" vertex="1">
          <mxGeometry x="35" y="1010" width="180" height="40" as="geometry" />
        </mxCell>
        <mxCell id="E4qFbeiB4ODEOkEXqFHY-2" value="" style="rounded=0;whiteSpace=wrap;html=1;" parent="1" vertex="1">
          <mxGeometry x="115" y="1050" width="360" height="240" as="geometry" />
        </mxCell>
        <mxCell id="E4qFbeiB4ODEOkEXqFHY-3" value="" style="rounded=0;whiteSpace=wrap;html=1;" parent="1" vertex="1">
          <mxGeometry x="125" y="1060" width="120" height="10" as="geometry" />
        </mxCell>
        <mxCell id="E4qFbeiB4ODEOkEXqFHY-4" value="" style="rounded=0;whiteSpace=wrap;html=1;fillColor=#60a917;fontColor=#ffffff;strokeColor=none;movable=1;resizable=1;rotatable=1;deletable=1;editable=1;locked=0;connectable=1;" parent="1" vertex="1">
          <mxGeometry x="126" y="1061" width="87" height="8" as="geometry" />
        </mxCell>
        <mxCell id="E4qFbeiB4ODEOkEXqFHY-5" value="" style="ellipse;whiteSpace=wrap;html=1;aspect=fixed;strokeWidth=4;" parent="1" vertex="1">
          <mxGeometry x="130" y="1253" width="30" height="30" as="geometry" />
        </mxCell>
        <mxCell id="E4qFbeiB4ODEOkEXqFHY-7" value="&lt;font face=&quot;Tahoma&quot;&gt;8.2&lt;/font&gt;" style="text;html=1;align=center;verticalAlign=middle;whiteSpace=wrap;rounded=0;" parent="1" vertex="1">
          <mxGeometry x="115" y="1251" width="60" height="30" as="geometry" />
        </mxCell>
        <mxCell id="E4qFbeiB4ODEOkEXqFHY-8" value="minimap overlay" style="rounded=0;whiteSpace=wrap;html=1;" parent="1" vertex="1">
          <mxGeometry x="388" y="1057" width="80" height="50" as="geometry" />
        </mxCell>
        <mxCell id="E4qFbeiB4ODEOkEXqFHY-9" value="" style="shape=flexArrow;endArrow=classic;html=1;rounded=0;width=5.714285714285714;endSize=3.095238095238095;endWidth=11.564625850340136;" parent="1" edge="1">
          <mxGeometry width="50" height="50" relative="1" as="geometry">
            <mxPoint x="65" y="1265" as="sourcePoint" />
            <mxPoint x="115" y="1265" as="targetPoint" />
          </mxGeometry>
        </mxCell>
        <mxCell id="E4qFbeiB4ODEOkEXqFHY-10" value="" style="shape=flexArrow;endArrow=classic;html=1;rounded=0;width=5.714285714285714;endSize=3.095238095238095;endWidth=11.564625850340136;" parent="1" edge="1">
          <mxGeometry width="50" height="50" relative="1" as="geometry">
            <mxPoint x="65" y="1065" as="sourcePoint" />
            <mxPoint x="115" y="1064.76" as="targetPoint" />
          </mxGeometry>
        </mxCell>
        <mxCell id="E4qFbeiB4ODEOkEXqFHY-11" value="&lt;div&gt;&lt;font style=&quot;font-size: 8px;&quot;&gt;Ability&amp;nbsp;&lt;/font&gt;&lt;span style=&quot;font-size: 8px; background-color: transparent; color: light-dark(rgb(0, 0, 0), rgb(255, 255, 255));&quot;&gt;Cooldown&lt;/span&gt;&lt;/div&gt;" style="text;html=1;align=center;verticalAlign=middle;whiteSpace=wrap;rounded=0;" parent="1" vertex="1">
          <mxGeometry x="-15" y="1251" width="90" height="30" as="geometry" />
        </mxCell>
        <mxCell id="E4qFbeiB4ODEOkEXqFHY-12" value="&lt;div&gt;&lt;span style=&quot;font-size: 8px;&quot;&gt;Health bar&lt;/span&gt;&lt;/div&gt;" style="text;html=1;align=center;verticalAlign=middle;whiteSpace=wrap;rounded=0;" parent="1" vertex="1">
          <mxGeometry x="-15" y="1048" width="90" height="30" as="geometry" />
        </mxCell>
        <mxCell id="E4qFbeiB4ODEOkEXqFHY-19" value="" style="whiteSpace=wrap;html=1;aspect=fixed;" parent="1" vertex="1">
          <mxGeometry x="125" y="1077" width="23" height="23" as="geometry" />
        </mxCell>
        <mxCell id="E4qFbeiB4ODEOkEXqFHY-20" value="" style="whiteSpace=wrap;html=1;aspect=fixed;" parent="1" vertex="1">
          <mxGeometry x="158" y="1077" width="23" height="23" as="geometry" />
        </mxCell>
        <mxCell id="E4qFbeiB4ODEOkEXqFHY-21" value="" style="whiteSpace=wrap;html=1;aspect=fixed;" parent="1" vertex="1">
          <mxGeometry x="192" y="1077" width="23" height="23" as="geometry" />
        </mxCell>
        <mxCell id="E4qFbeiB4ODEOkEXqFHY-22" value="" style="shape=flexArrow;endArrow=classic;html=1;rounded=0;width=5.714285714285714;endSize=3.095238095238095;endWidth=11.564625850340136;" parent="1" edge="1">
          <mxGeometry width="50" height="50" relative="1" as="geometry">
            <mxPoint x="60" y="1091.8" as="sourcePoint" />
            <mxPoint x="110" y="1091.8" as="targetPoint" />
          </mxGeometry>
        </mxCell>
        <mxCell id="E4qFbeiB4ODEOkEXqFHY-23" value="&lt;span style=&quot;font-size: 8px;&quot;&gt;Level/Upgrades display&lt;/span&gt;" style="text;html=1;align=center;verticalAlign=middle;whiteSpace=wrap;rounded=0;" parent="1" vertex="1">
          <mxGeometry x="-35" y="1077" width="90" height="30" as="geometry" />
        </mxCell>
        <mxCell id="E4qFbeiB4ODEOkEXqFHY-24" value="" style="triangle;whiteSpace=wrap;html=1;rotation=-90;strokeColor=none;" parent="1" vertex="1">
          <mxGeometry x="137.20000000000005" y="1258.45" width="16.87" height="43" as="geometry" />
        </mxCell>
        <mxCell id="E4qFbeiB4ODEOkEXqFHY-25" value="&lt;div&gt;&lt;font style=&quot;font-size: 7px;&quot;&gt;player&lt;/font&gt;&lt;/div&gt;" style="shape=umlActor;verticalLabelPosition=bottom;verticalAlign=top;html=1;outlineConnect=0;rounded=0;" parent="1" vertex="1">
          <mxGeometry x="288.75" y="1157.5" width="12.5" height="25" as="geometry" />
        </mxCell>
        <mxCell id="qcbjBJVX_TwobVYU_Xer-1" value="" style="endArrow=none;html=1;rounded=0;" parent="1" edge="1">
          <mxGeometry width="50" height="50" relative="1" as="geometry">
            <mxPoint x="-560" y="800" as="sourcePoint" />
            <mxPoint x="-560" y="560" as="targetPoint" />
          </mxGeometry>
        </mxCell>
        <mxCell id="qcbjBJVX_TwobVYU_Xer-2" value="" style="endArrow=none;html=1;rounded=0;" parent="1" edge="1">
          <mxGeometry width="50" height="50" relative="1" as="geometry">
            <mxPoint x="-560" y="560" as="sourcePoint" />
            <mxPoint x="-320" y="560" as="targetPoint" />
          </mxGeometry>
        </mxCell>
        <mxCell id="qcbjBJVX_TwobVYU_Xer-3" value="" style="endArrow=none;html=1;rounded=0;" parent="1" edge="1">
          <mxGeometry width="50" height="50" relative="1" as="geometry">
            <mxPoint x="-560" y="800" as="sourcePoint" />
            <mxPoint x="-320" y="800" as="targetPoint" />
          </mxGeometry>
        </mxCell>
        <mxCell id="qcbjBJVX_TwobVYU_Xer-4" value="" style="endArrow=none;html=1;rounded=0;" parent="1" edge="1">
          <mxGeometry width="50" height="50" relative="1" as="geometry">
            <mxPoint x="-320" y="800" as="sourcePoint" />
            <mxPoint x="-320" y="720" as="targetPoint" />
          </mxGeometry>
        </mxCell>
        <mxCell id="qcbjBJVX_TwobVYU_Xer-5" value="" style="endArrow=none;html=1;rounded=0;" parent="1" edge="1">
          <mxGeometry width="50" height="50" relative="1" as="geometry">
            <mxPoint x="-320" y="640" as="sourcePoint" />
            <mxPoint x="-320" y="560" as="targetPoint" />
          </mxGeometry>
        </mxCell>
        <mxCell id="qcbjBJVX_TwobVYU_Xer-6" value="" style="endArrow=none;html=1;rounded=0;" parent="1" edge="1">
          <mxGeometry width="50" height="50" relative="1" as="geometry">
            <mxPoint x="-320" y="720" as="sourcePoint" />
            <mxPoint x="-200" y="720" as="targetPoint" />
          </mxGeometry>
        </mxCell>
        <mxCell id="qcbjBJVX_TwobVYU_Xer-7" value="" style="endArrow=none;html=1;rounded=0;" parent="1" edge="1">
          <mxGeometry width="50" height="50" relative="1" as="geometry">
            <mxPoint x="-320" y="640" as="sourcePoint" />
            <mxPoint x="-200" y="640" as="targetPoint" />
          </mxGeometry>
        </mxCell>
        <mxCell id="qcbjBJVX_TwobVYU_Xer-8" value="" style="endArrow=none;html=1;rounded=0;" parent="1" edge="1">
          <mxGeometry width="50" height="50" relative="1" as="geometry">
            <mxPoint x="-200" y="960" as="sourcePoint" />
            <mxPoint x="-200" y="720" as="targetPoint" />
          </mxGeometry>
        </mxCell>
        <mxCell id="qcbjBJVX_TwobVYU_Xer-9" value="" style="endArrow=none;html=1;rounded=0;" parent="1" edge="1">
          <mxGeometry width="50" height="50" relative="1" as="geometry">
            <mxPoint x="-200" y="640" as="sourcePoint" />
            <mxPoint x="-200" y="400" as="targetPoint" />
          </mxGeometry>
        </mxCell>
        <mxCell id="qcbjBJVX_TwobVYU_Xer-10" value="" style="endArrow=none;html=1;rounded=0;" parent="1" edge="1">
          <mxGeometry width="50" height="50" relative="1" as="geometry">
            <mxPoint x="-200" y="400" as="sourcePoint" />
            <mxPoint x="760" y="400" as="targetPoint" />
          </mxGeometry>
        </mxCell>
        <mxCell id="qcbjBJVX_TwobVYU_Xer-11" value="" style="endArrow=none;html=1;rounded=0;" parent="1" edge="1">
          <mxGeometry width="50" height="50" relative="1" as="geometry">
            <mxPoint x="-200" y="960" as="sourcePoint" />
            <mxPoint x="761.3071576286765" y="960" as="targetPoint" />
          </mxGeometry>
        </mxCell>
        <mxCell id="qcbjBJVX_TwobVYU_Xer-12" value="" style="endArrow=none;html=1;rounded=0;" parent="1" edge="1">
          <mxGeometry width="50" height="50" relative="1" as="geometry">
            <mxPoint x="760" y="640" as="sourcePoint" />
            <mxPoint x="760" y="400" as="targetPoint" />
          </mxGeometry>
        </mxCell>
        <mxCell id="qcbjBJVX_TwobVYU_Xer-13" value="" style="endArrow=none;html=1;rounded=0;" parent="1" edge="1">
          <mxGeometry width="50" height="50" relative="1" as="geometry">
            <mxPoint x="760" y="960" as="sourcePoint" />
            <mxPoint x="760" y="720" as="targetPoint" />
          </mxGeometry>
        </mxCell>
        <mxCell id="qcbjBJVX_TwobVYU_Xer-14" value="" style="endArrow=none;html=1;rounded=0;" parent="1" edge="1">
          <mxGeometry width="50" height="50" relative="1" as="geometry">
            <mxPoint x="760" y="640" as="sourcePoint" />
            <mxPoint x="880" y="640" as="targetPoint" />
          </mxGeometry>
        </mxCell>
        <mxCell id="qcbjBJVX_TwobVYU_Xer-15" value="" style="endArrow=none;html=1;rounded=0;" parent="1" edge="1">
          <mxGeometry width="50" height="50" relative="1" as="geometry">
            <mxPoint x="760" y="720" as="sourcePoint" />
            <mxPoint x="880" y="720" as="targetPoint" />
          </mxGeometry>
        </mxCell>
        <mxCell id="qcbjBJVX_TwobVYU_Xer-16" value="" style="endArrow=none;html=1;rounded=0;" parent="1" edge="1">
          <mxGeometry width="50" height="50" relative="1" as="geometry">
            <mxPoint x="880" y="640" as="sourcePoint" />
            <mxPoint x="880" y="560" as="targetPoint" />
          </mxGeometry>
        </mxCell>
        <mxCell id="qcbjBJVX_TwobVYU_Xer-17" value="" style="endArrow=none;html=1;rounded=0;" parent="1" edge="1">
          <mxGeometry width="50" height="50" relative="1" as="geometry">
            <mxPoint x="880" y="800" as="sourcePoint" />
            <mxPoint x="880" y="720" as="targetPoint" />
          </mxGeometry>
        </mxCell>
        <mxCell id="qcbjBJVX_TwobVYU_Xer-18" value="" style="endArrow=none;html=1;rounded=0;" parent="1" edge="1">
          <mxGeometry width="50" height="50" relative="1" as="geometry">
            <mxPoint x="880" y="560" as="sourcePoint" />
            <mxPoint x="1120" y="560" as="targetPoint" />
          </mxGeometry>
        </mxCell>
        <mxCell id="qcbjBJVX_TwobVYU_Xer-19" value="" style="endArrow=none;html=1;rounded=0;" parent="1" edge="1">
          <mxGeometry width="50" height="50" relative="1" as="geometry">
            <mxPoint x="880" y="800" as="sourcePoint" />
            <mxPoint x="1120" y="800" as="targetPoint" />
          </mxGeometry>
        </mxCell>
        <mxCell id="qcbjBJVX_TwobVYU_Xer-20" value="" style="endArrow=none;html=1;rounded=0;" parent="1" edge="1">
          <mxGeometry width="50" height="50" relative="1" as="geometry">
            <mxPoint x="1120" y="800" as="sourcePoint" />
            <mxPoint x="1120" y="560" as="targetPoint" />
          </mxGeometry>
        </mxCell>
        <mxCell id="SbEfbYagfhGNZM0D1NDL-1" value="" style="endArrow=none;html=1;rounded=0;" parent="1" edge="1">
          <mxGeometry width="50" height="50" relative="1" as="geometry">
            <mxPoint x="-120" y="720" as="sourcePoint" />
            <mxPoint x="-120" y="640" as="targetPoint" />
          </mxGeometry>
        </mxCell>
        <mxCell id="SbEfbYagfhGNZM0D1NDL-2" value="" style="endArrow=none;html=1;rounded=0;" parent="1" edge="1">
          <mxGeometry width="50" height="50" relative="1" as="geometry">
            <mxPoint x="-120" y="800" as="sourcePoint" />
            <mxPoint x="-120" y="720" as="targetPoint" />
          </mxGeometry>
        </mxCell>
        <mxCell id="SbEfbYagfhGNZM0D1NDL-3" value="" style="endArrow=none;html=1;rounded=0;" parent="1" edge="1">
          <mxGeometry width="50" height="50" relative="1" as="geometry">
            <mxPoint x="-120" y="880" as="sourcePoint" />
            <mxPoint x="-120" y="800" as="targetPoint" />
          </mxGeometry>
        </mxCell>
        <mxCell id="SbEfbYagfhGNZM0D1NDL-4" value="" style="endArrow=none;html=1;rounded=0;" parent="1" edge="1">
          <mxGeometry width="50" height="50" relative="1" as="geometry">
            <mxPoint x="-120" y="640" as="sourcePoint" />
            <mxPoint x="-120" y="560" as="targetPoint" />
          </mxGeometry>
        </mxCell>
        <mxCell id="SbEfbYagfhGNZM0D1NDL-5" value="" style="endArrow=none;html=1;rounded=0;" parent="1" edge="1">
          <mxGeometry width="50" height="50" relative="1" as="geometry">
            <mxPoint x="-120" y="560" as="sourcePoint" />
            <mxPoint x="-120" y="480" as="targetPoint" />
          </mxGeometry>
        </mxCell>
        <mxCell id="SbEfbYagfhGNZM0D1NDL-6" value="" style="endArrow=none;html=1;rounded=0;" parent="1" edge="1">
          <mxGeometry width="50" height="50" relative="1" as="geometry">
            <mxPoint x="-40" y="600" as="sourcePoint" />
            <mxPoint x="-40" y="400" as="targetPoint" />
          </mxGeometry>
        </mxCell>
        <mxCell id="SbEfbYagfhGNZM0D1NDL-7" value="" style="endArrow=none;html=1;rounded=0;" parent="1" edge="1">
          <mxGeometry width="50" height="50" relative="1" as="geometry">
            <mxPoint x="-40" y="960" as="sourcePoint" />
            <mxPoint x="-40" y="800" as="targetPoint" />
          </mxGeometry>
        </mxCell>
        <mxCell id="SbEfbYagfhGNZM0D1NDL-8" value="" style="endArrow=none;html=1;rounded=0;" parent="1" edge="1">
          <mxGeometry width="50" height="50" relative="1" as="geometry">
            <mxPoint x="-120" y="720" as="sourcePoint" />
            <mxPoint x="40" y="720" as="targetPoint" />
          </mxGeometry>
        </mxCell>
        <mxCell id="SbEfbYagfhGNZM0D1NDL-9" value="" style="endArrow=none;html=1;rounded=0;" parent="1" edge="1">
          <mxGeometry width="50" height="50" relative="1" as="geometry">
            <mxPoint x="-40" y="600" as="sourcePoint" />
            <mxPoint x="-40" y="640" as="targetPoint" />
          </mxGeometry>
        </mxCell>
        <mxCell id="SbEfbYagfhGNZM0D1NDL-10" value="" style="endArrow=none;html=1;rounded=0;" parent="1" edge="1">
          <mxGeometry width="50" height="50" relative="1" as="geometry">
            <mxPoint x="-40" y="640" as="sourcePoint" />
            <mxPoint x="120" y="640" as="targetPoint" />
          </mxGeometry>
        </mxCell>
        <mxCell id="SbEfbYagfhGNZM0D1NDL-11" value="" style="endArrow=none;html=1;rounded=0;" parent="1" edge="1">
          <mxGeometry width="50" height="50" relative="1" as="geometry">
            <mxPoint x="40" y="720" as="sourcePoint" />
            <mxPoint x="120" y="720" as="targetPoint" />
          </mxGeometry>
        </mxCell>
        <mxCell id="SbEfbYagfhGNZM0D1NDL-12" value="" style="endArrow=none;html=1;rounded=0;" parent="1" edge="1">
          <mxGeometry width="50" height="50" relative="1" as="geometry">
            <mxPoint x="120" y="720" as="sourcePoint" />
            <mxPoint x="240" y="720" as="targetPoint" />
          </mxGeometry>
        </mxCell>
        <mxCell id="SbEfbYagfhGNZM0D1NDL-13" value="" style="endArrow=none;html=1;rounded=0;" parent="1" edge="1">
          <mxGeometry width="50" height="50" relative="1" as="geometry">
            <mxPoint x="240" y="880" as="sourcePoint" />
            <mxPoint x="240" y="720" as="targetPoint" />
          </mxGeometry>
        </mxCell>
        <mxCell id="SbEfbYagfhGNZM0D1NDL-14" value="" style="rounded=0;whiteSpace=wrap;html=1;" parent="1" vertex="1">
          <mxGeometry x="230" y="880" width="20" height="80" as="geometry" />
        </mxCell>
        <mxCell id="SbEfbYagfhGNZM0D1NDL-15" value="key1" style="rhombus;whiteSpace=wrap;html=1;" parent="1" vertex="1">
          <mxGeometry x="55" y="890" width="45.93" height="50" as="geometry" />
        </mxCell>
        <mxCell id="SbEfbYagfhGNZM0D1NDL-16" value="" style="endArrow=none;html=1;rounded=0;" parent="1" edge="1">
          <mxGeometry width="50" height="50" relative="1" as="geometry">
            <mxPoint x="240" y="720" as="sourcePoint" />
            <mxPoint x="240" y="640" as="targetPoint" />
          </mxGeometry>
        </mxCell>
        <mxCell id="SbEfbYagfhGNZM0D1NDL-17" value="" style="endArrow=none;html=1;rounded=0;" parent="1" edge="1">
          <mxGeometry width="50" height="50" relative="1" as="geometry">
            <mxPoint x="200" y="640" as="sourcePoint" />
            <mxPoint x="240" y="640" as="targetPoint" />
          </mxGeometry>
        </mxCell>
        <mxCell id="SbEfbYagfhGNZM0D1NDL-18" value="" style="endArrow=none;html=1;rounded=0;" parent="1" edge="1">
          <mxGeometry width="50" height="50" relative="1" as="geometry">
            <mxPoint x="240" y="640" as="sourcePoint" />
            <mxPoint x="240" y="400" as="targetPoint" />
          </mxGeometry>
        </mxCell>
        <mxCell id="yUM1cWZdu92-o5XkkKn8-1" value="" style="endArrow=none;html=1;rounded=0;" parent="1" edge="1">
          <mxGeometry width="50" height="50" relative="1" as="geometry">
            <mxPoint x="320" y="960" as="sourcePoint" />
            <mxPoint x="320" y="720" as="targetPoint" />
          </mxGeometry>
        </mxCell>
        <mxCell id="yUM1cWZdu92-o5XkkKn8-2" value="" style="endArrow=none;html=1;rounded=0;" parent="1" edge="1">
          <mxGeometry width="50" height="50" relative="1" as="geometry">
            <mxPoint x="320" y="640" as="sourcePoint" />
            <mxPoint x="320" y="480" as="targetPoint" />
          </mxGeometry>
        </mxCell>
        <mxCell id="yUM1cWZdu92-o5XkkKn8-3" value="" style="endArrow=none;html=1;rounded=0;" parent="1" edge="1">
          <mxGeometry width="50" height="50" relative="1" as="geometry">
            <mxPoint x="400" y="640" as="sourcePoint" />
            <mxPoint x="400" y="480" as="targetPoint" />
          </mxGeometry>
        </mxCell>
        <mxCell id="yUM1cWZdu92-o5XkkKn8-4" value="" style="endArrow=none;html=1;rounded=0;" parent="1" edge="1">
          <mxGeometry width="50" height="50" relative="1" as="geometry">
            <mxPoint x="320" y="640" as="sourcePoint" />
            <mxPoint x="760" y="640" as="targetPoint" />
          </mxGeometry>
        </mxCell>
        <mxCell id="yUM1cWZdu92-o5XkkKn8-5" value="" style="endArrow=none;html=1;rounded=0;" parent="1" edge="1">
          <mxGeometry width="50" height="50" relative="1" as="geometry">
            <mxPoint x="320" y="480" as="sourcePoint" />
            <mxPoint x="440" y="480" as="targetPoint" />
          </mxGeometry>
        </mxCell>
        <mxCell id="yUM1cWZdu92-o5XkkKn8-6" value="" style="endArrow=none;html=1;rounded=0;" parent="1" edge="1">
          <mxGeometry width="50" height="50" relative="1" as="geometry">
            <mxPoint x="520" y="480" as="sourcePoint" />
            <mxPoint x="760" y="480" as="targetPoint" />
          </mxGeometry>
        </mxCell>
        <mxCell id="yUM1cWZdu92-o5XkkKn8-9" value="" style="endArrow=none;html=1;rounded=0;" parent="1" edge="1">
          <mxGeometry width="50" height="50" relative="1" as="geometry">
            <mxPoint x="320" y="720" as="sourcePoint" />
            <mxPoint x="440" y="720" as="targetPoint" />
          </mxGeometry>
        </mxCell>
        <mxCell id="yUM1cWZdu92-o5XkkKn8-10" value="" style="endArrow=none;html=1;rounded=0;" parent="1" edge="1">
          <mxGeometry width="50" height="50" relative="1" as="geometry">
            <mxPoint x="520" y="720" as="sourcePoint" />
            <mxPoint x="760" y="720" as="targetPoint" />
          </mxGeometry>
        </mxCell>
        <mxCell id="yUM1cWZdu92-o5XkkKn8-11" value="Fake&lt;span style=&quot;color: rgba(0, 0, 0, 0); font-family: monospace; font-size: 0px; text-align: start; text-wrap-mode: nowrap;&quot;&gt;%3CmxGraphModel%3E%3Croot%3E%3CmxCell%20id%3D%220%22%2F%3E%3CmxCell%20id%3D%221%22%20parent%3D%220%22%2F%3E%3CmxCell%20id%3D%222%22%20value%3D%22%22%20style%3D%22endArrow%3Dnone%3Bhtml%3D1%3Brounded%3D0%3B%22%20edge%3D%221%22%20parent%3D%221%22%3E%3CmxGeometry%20width%3D%2250%22%20height%3D%2250%22%20relative%3D%221%22%20as%3D%22geometry%22%3E%3CmxPoint%20x%3D%22320%22%20y%3D%22720%22%20as%3D%22sourcePoint%22%2F%3E%3CmxPoint%20x%3D%22440%22%20y%3D%22720%22%20as%3D%22targetPoint%22%2F%3E%3C%2FmxGeometry%3E%3C%2FmxCell%3E%3C%2Froot%3E%3C%2FmxGraphModel%3E&lt;/span&gt;" style="text;html=1;align=center;verticalAlign=middle;whiteSpace=wrap;rounded=0;" parent="1" vertex="1">
          <mxGeometry x="55" y="490" width="60" height="30" as="geometry" />
        </mxCell>
        <mxCell id="yUM1cWZdu92-o5XkkKn8-12" value="Fake&lt;span style=&quot;color: rgba(0, 0, 0, 0); font-family: monospace; font-size: 0px; text-align: start; text-wrap-mode: nowrap;&quot;&gt;%3CmxGraphModel%3E%3Croot%3E%3CmxCell%20id%3D%220%22%2F%3E%3CmxCell%20id%3D%221%22%20parent%3D%220%22%2F%3E%3CmxCell%20id%3D%222%22%20value%3D%22%22%20style%3D%22endArrow%3Dnone%3Bhtml%3D1%3Brounded%3D0%3B%22%20edge%3D%221%22%20parent%3D%221%22%3E%3CmxGeometry%20width%3D%2250%22%20height%3D%2250%22%20relative%3D%221%22%20as%3D%22geometry%22%3E%3CmxPoint%20x%3D%22320%22%20y%3D%22720%22%20as%3D%22sourcePoint%22%2F%3E%3CmxPoint%20x%3D%22440%22%20y%3D%22720%22%20as%3D%22targetPoint%22%2F%3E%3C%2FmxGeometry%3E%3C%2FmxCell%3E%3C%2Froot%3E%3C%2FmxGraphModel%3E&lt;/span&gt;" style="text;html=1;align=center;verticalAlign=middle;whiteSpace=wrap;rounded=0;" parent="1" vertex="1">
          <mxGeometry x="500" y="850" width="60" height="30" as="geometry" />
        </mxCell>
        <mxCell id="yUM1cWZdu92-o5XkkKn8-13" value="key2" style="rhombus;whiteSpace=wrap;html=1;" parent="1" vertex="1">
          <mxGeometry x="670" y="530" width="45.93" height="50" as="geometry" />
        </mxCell>
        <mxCell id="yUM1cWZdu92-o5XkkKn8-14" value="DOOR&lt;div&gt;2KEY NEED&lt;/div&gt;" style="rounded=0;whiteSpace=wrap;html=1;rotation=-90;" parent="1" vertex="1">
          <mxGeometry x="749.84" y="649.39" width="80" height="60" as="geometry" />
        </mxCell>
        <mxCell id="yUM1cWZdu92-o5XkkKn8-15" value="Store" style="ellipse;whiteSpace=wrap;html=1;aspect=fixed;" parent="1" vertex="1">
          <mxGeometry x="919.5" y="600" width="40" height="40" as="geometry" />
        </mxCell>
        <mxCell id="yUM1cWZdu92-o5XkkKn8-16" value="Shop" style="ellipse;whiteSpace=wrap;html=1;aspect=fixed;" parent="1" vertex="1">
          <mxGeometry x="-540" y="580" width="40" height="40" as="geometry" />
        </mxCell>
        <mxCell id="yUM1cWZdu92-o5XkkKn8-17" value="spawn" style="rhombus;whiteSpace=wrap;html=1;" parent="1" vertex="1">
          <mxGeometry x="-540" y="700" width="40" height="40" as="geometry" />
        </mxCell>
        <mxCell id="6VGCQqHkiVJrhonhT-YP-1" value="Portal&lt;div&gt;to BOSS&amp;nbsp;&lt;/div&gt;&lt;div&gt;LVL 6&lt;/div&gt;" style="rhombus;whiteSpace=wrap;html=1;" vertex="1" parent="1">
          <mxGeometry x="1000" y="680" width="80" height="80" as="geometry" />
        </mxCell>
        <mxCell id="6VGCQqHkiVJrhonhT-YP-3" value="On Update" style="rounded=0;whiteSpace=wrap;html=1;" vertex="1" parent="1">
          <mxGeometry x="-385" y="1410" width="120" height="40" as="geometry" />
        </mxCell>
        <mxCell id="6VGCQqHkiVJrhonhT-YP-4" style="edgeStyle=none;curved=1;rounded=0;orthogonalLoop=1;jettySize=auto;html=1;exitX=0.5;exitY=1;exitDx=0;exitDy=0;fontSize=12;startSize=8;endSize=8;" edge="1" parent="1" source="6VGCQqHkiVJrhonhT-YP-5" target="6VGCQqHkiVJrhonhT-YP-9">
          <mxGeometry relative="1" as="geometry" />
        </mxCell>
        <mxCell id="6VGCQqHkiVJrhonhT-YP-5" value="&lt;div&gt;&lt;span style=&quot;background-color: transparent; color: light-dark(rgb(0, 0, 0), rgb(255, 255, 255));&quot;&gt;When Movement key is pressed&lt;/span&gt;&lt;/div&gt;" style="rhombus;whiteSpace=wrap;html=1;" vertex="1" parent="1">
          <mxGeometry x="-740" y="1510" width="190" height="80" as="geometry" />
        </mxCell>
        <mxCell id="6VGCQqHkiVJrhonhT-YP-6" value="" style="endArrow=none;html=1;rounded=0;fontSize=12;startSize=8;endSize=8;curved=1;" edge="1" parent="1">
          <mxGeometry width="50" height="50" relative="1" as="geometry">
            <mxPoint x="-325" y="1490" as="sourcePoint" />
            <mxPoint x="-325" y="1450" as="targetPoint" />
          </mxGeometry>
        </mxCell>
        <mxCell id="6VGCQqHkiVJrhonhT-YP-7" value="" style="endArrow=none;html=1;rounded=0;fontSize=12;startSize=8;endSize=8;curved=1;" edge="1" parent="1">
          <mxGeometry width="50" height="50" relative="1" as="geometry">
            <mxPoint x="-325" y="1490" as="sourcePoint" />
            <mxPoint x="-645" y="1490" as="targetPoint" />
          </mxGeometry>
        </mxCell>
        <mxCell id="6VGCQqHkiVJrhonhT-YP-8" value="" style="endArrow=classic;html=1;rounded=0;fontSize=12;startSize=8;endSize=8;curved=1;entryX=0.5;entryY=0;entryDx=0;entryDy=0;" edge="1" parent="1" target="6VGCQqHkiVJrhonhT-YP-5">
          <mxGeometry width="50" height="50" relative="1" as="geometry">
            <mxPoint x="-645" y="1490" as="sourcePoint" />
            <mxPoint x="-695" y="1500" as="targetPoint" />
          </mxGeometry>
        </mxCell>
        <mxCell id="6VGCQqHkiVJrhonhT-YP-9" value="Move the player in that direction" style="rounded=0;whiteSpace=wrap;html=1;" vertex="1" parent="1">
          <mxGeometry x="-705" y="1650" width="120" height="60" as="geometry" />
        </mxCell>
        <mxCell id="6VGCQqHkiVJrhonhT-YP-10" value="" style="endArrow=classic;html=1;rounded=0;fontSize=12;startSize=8;endSize=8;curved=1;" edge="1" parent="1">
          <mxGeometry width="50" height="50" relative="1" as="geometry">
            <mxPoint x="-445" y="1490" as="sourcePoint" />
            <mxPoint x="-445" y="1510" as="targetPoint" />
          </mxGeometry>
        </mxCell>
        <mxCell id="6VGCQqHkiVJrhonhT-YP-11" value="" style="edgeStyle=none;curved=1;rounded=0;orthogonalLoop=1;jettySize=auto;html=1;fontSize=12;startSize=8;endSize=8;" edge="1" parent="1" source="6VGCQqHkiVJrhonhT-YP-12" target="6VGCQqHkiVJrhonhT-YP-17">
          <mxGeometry relative="1" as="geometry" />
        </mxCell>
        <mxCell id="6VGCQqHkiVJrhonhT-YP-12" value="When interact with weapon" style="rhombus;whiteSpace=wrap;html=1;" vertex="1" parent="1">
          <mxGeometry x="-325" y="1510" width="160" height="80" as="geometry" />
        </mxCell>
        <mxCell id="6VGCQqHkiVJrhonhT-YP-13" value="" style="endArrow=none;html=1;rounded=0;fontSize=12;startSize=8;endSize=8;curved=1;" edge="1" parent="1">
          <mxGeometry width="50" height="50" relative="1" as="geometry">
            <mxPoint x="-325" y="1490" as="sourcePoint" />
            <mxPoint x="2060" y="1490" as="targetPoint" />
          </mxGeometry>
        </mxCell>
        <mxCell id="6VGCQqHkiVJrhonhT-YP-14" value="" style="endArrow=classic;html=1;rounded=0;fontSize=12;startSize=8;endSize=8;curved=1;" edge="1" parent="1">
          <mxGeometry width="50" height="50" relative="1" as="geometry">
            <mxPoint x="-245.11" y="1490" as="sourcePoint" />
            <mxPoint x="-245.11" y="1510" as="targetPoint" />
          </mxGeometry>
        </mxCell>
        <mxCell id="6VGCQqHkiVJrhonhT-YP-15" style="edgeStyle=orthogonalEdgeStyle;rounded=0;orthogonalLoop=1;jettySize=auto;html=1;exitX=1;exitY=0.5;exitDx=0;exitDy=0;" edge="1" parent="1">
          <mxGeometry relative="1" as="geometry">
            <mxPoint x="-112.5" y="1680" as="targetPoint" />
            <mxPoint x="-192.5" y="1680" as="sourcePoint" />
          </mxGeometry>
        </mxCell>
        <mxCell id="6VGCQqHkiVJrhonhT-YP-16" style="edgeStyle=orthogonalEdgeStyle;rounded=0;orthogonalLoop=1;jettySize=auto;html=1;exitX=0.5;exitY=1;exitDx=0;exitDy=0;" edge="1" parent="1" source="6VGCQqHkiVJrhonhT-YP-17">
          <mxGeometry relative="1" as="geometry">
            <mxPoint x="-245" y="1770" as="targetPoint" />
          </mxGeometry>
        </mxCell>
        <mxCell id="6VGCQqHkiVJrhonhT-YP-17" value="Do player have a weapon&lt;div&gt;equipped already&lt;/div&gt;" style="rhombus;whiteSpace=wrap;html=1;" vertex="1" parent="1">
          <mxGeometry x="-325" y="1640" width="160" height="80" as="geometry" />
        </mxCell>
        <mxCell id="6VGCQqHkiVJrhonhT-YP-18" value="Equip Weapon&amp;nbsp;" style="rounded=0;whiteSpace=wrap;html=1;" vertex="1" parent="1">
          <mxGeometry x="-112.5" y="1650" width="120" height="60" as="geometry" />
        </mxCell>
        <mxCell id="6VGCQqHkiVJrhonhT-YP-19" value="Swap Weapons" style="rounded=0;whiteSpace=wrap;html=1;" vertex="1" parent="1">
          <mxGeometry x="-305" y="1770" width="120" height="60" as="geometry" />
        </mxCell>
        <mxCell id="6VGCQqHkiVJrhonhT-YP-20" value="" style="endArrow=classic;html=1;rounded=0;fontSize=12;startSize=8;endSize=8;curved=1;" edge="1" parent="1">
          <mxGeometry width="50" height="50" relative="1" as="geometry">
            <mxPoint x="144.60000000000002" y="1490" as="sourcePoint" />
            <mxPoint x="144.60000000000002" y="1510" as="targetPoint" />
          </mxGeometry>
        </mxCell>
        <mxCell id="6VGCQqHkiVJrhonhT-YP-21" style="edgeStyle=orthogonalEdgeStyle;rounded=0;orthogonalLoop=1;jettySize=auto;html=1;exitX=0.5;exitY=1;exitDx=0;exitDy=0;entryX=0.5;entryY=0;entryDx=0;entryDy=0;" edge="1" parent="1" source="6VGCQqHkiVJrhonhT-YP-22">
          <mxGeometry relative="1" as="geometry">
            <mxPoint x="145" y="1650" as="targetPoint" />
          </mxGeometry>
        </mxCell>
        <mxCell id="6VGCQqHkiVJrhonhT-YP-22" value="When Attack key is pressed" style="rhombus;whiteSpace=wrap;html=1;" vertex="1" parent="1">
          <mxGeometry x="75" y="1510" width="140" height="80" as="geometry" />
        </mxCell>
        <mxCell id="6VGCQqHkiVJrhonhT-YP-23" style="edgeStyle=orthogonalEdgeStyle;rounded=0;orthogonalLoop=1;jettySize=auto;html=1;exitX=0.5;exitY=1;exitDx=0;exitDy=0;" edge="1" parent="1" source="6VGCQqHkiVJrhonhT-YP-25">
          <mxGeometry relative="1" as="geometry">
            <mxPoint x="35" y="1800" as="targetPoint" />
            <mxPoint x="145" y="1770" as="sourcePoint" />
          </mxGeometry>
        </mxCell>
        <mxCell id="6VGCQqHkiVJrhonhT-YP-24" value="" style="edgeStyle=orthogonalEdgeStyle;rounded=0;orthogonalLoop=1;jettySize=auto;html=1;" edge="1" parent="1" source="6VGCQqHkiVJrhonhT-YP-25" target="6VGCQqHkiVJrhonhT-YP-27">
          <mxGeometry relative="1" as="geometry" />
        </mxCell>
        <mxCell id="6VGCQqHkiVJrhonhT-YP-25" value="Is equipped weapon type&lt;div&gt;&amp;nbsp;projectile or melee&lt;/div&gt;" style="rhombus;whiteSpace=wrap;html=1;rounded=0;" vertex="1" parent="1">
          <mxGeometry x="55" y="1650" width="180" height="80" as="geometry" />
        </mxCell>
        <mxCell id="6VGCQqHkiVJrhonhT-YP-26" value="" style="edgeStyle=orthogonalEdgeStyle;rounded=0;orthogonalLoop=1;jettySize=auto;html=1;" edge="1" parent="1" source="6VGCQqHkiVJrhonhT-YP-27" target="6VGCQqHkiVJrhonhT-YP-36">
          <mxGeometry relative="1" as="geometry" />
        </mxCell>
        <mxCell id="6VGCQqHkiVJrhonhT-YP-27" value="If melee, create a slashing object with damage stats from weapon, when enemy touch&amp;nbsp;" style="whiteSpace=wrap;html=1;rounded=0;" vertex="1" parent="1">
          <mxGeometry x="178" y="1800" width="170" height="50" as="geometry" />
        </mxCell>
        <mxCell id="6VGCQqHkiVJrhonhT-YP-28" value="" style="edgeStyle=orthogonalEdgeStyle;rounded=0;orthogonalLoop=1;jettySize=auto;html=1;" edge="1" parent="1" source="6VGCQqHkiVJrhonhT-YP-29" target="6VGCQqHkiVJrhonhT-YP-33">
          <mxGeometry relative="1" as="geometry" />
        </mxCell>
        <mxCell id="6VGCQqHkiVJrhonhT-YP-29" value="If Projectile, create a projectile with speed stats and damage stats from weapon&amp;nbsp;" style="rounded=0;whiteSpace=wrap;html=1;" vertex="1" parent="1">
          <mxGeometry x="-25" y="1800" width="120" height="60" as="geometry" />
        </mxCell>
        <mxCell id="6VGCQqHkiVJrhonhT-YP-30" style="edgeStyle=orthogonalEdgeStyle;rounded=0;orthogonalLoop=1;jettySize=auto;html=1;exitX=0.5;exitY=1;exitDx=0;exitDy=0;" edge="1" parent="1" source="6VGCQqHkiVJrhonhT-YP-27" target="6VGCQqHkiVJrhonhT-YP-27">
          <mxGeometry relative="1" as="geometry" />
        </mxCell>
        <mxCell id="6VGCQqHkiVJrhonhT-YP-31" value="" style="edgeStyle=orthogonalEdgeStyle;rounded=0;orthogonalLoop=1;jettySize=auto;html=1;" edge="1" parent="1" source="6VGCQqHkiVJrhonhT-YP-33" target="6VGCQqHkiVJrhonhT-YP-34">
          <mxGeometry relative="1" as="geometry" />
        </mxCell>
        <mxCell id="6VGCQqHkiVJrhonhT-YP-32" value="" style="edgeStyle=orthogonalEdgeStyle;rounded=0;orthogonalLoop=1;jettySize=auto;html=1;exitX=1;exitY=0.5;exitDx=0;exitDy=0;" edge="1" parent="1" source="6VGCQqHkiVJrhonhT-YP-33" target="6VGCQqHkiVJrhonhT-YP-35">
          <mxGeometry relative="1" as="geometry" />
        </mxCell>
        <mxCell id="6VGCQqHkiVJrhonhT-YP-33" value="Did the projectile hit&lt;div&gt;the enemy before a set time&lt;/div&gt;" style="rhombus;whiteSpace=wrap;html=1;rounded=0;" vertex="1" parent="1">
          <mxGeometry x="-65" y="1890" width="200" height="90" as="geometry" />
        </mxCell>
        <mxCell id="6VGCQqHkiVJrhonhT-YP-34" value="Delt damage to enemy health point. Delete projectile" style="whiteSpace=wrap;html=1;rounded=0;" vertex="1" parent="1">
          <mxGeometry x="-26" y="2020" width="120" height="60" as="geometry" />
        </mxCell>
        <mxCell id="6VGCQqHkiVJrhonhT-YP-35" value="Delete Projectile" style="whiteSpace=wrap;html=1;rounded=0;" vertex="1" parent="1">
          <mxGeometry x="128.75" y="2000" width="120" height="60" as="geometry" />
        </mxCell>
        <mxCell id="6VGCQqHkiVJrhonhT-YP-36" value="Deal damage to enemy according with weapon damage stats" style="whiteSpace=wrap;html=1;rounded=0;" vertex="1" parent="1">
          <mxGeometry x="285" y="1950" width="120" height="60" as="geometry" />
        </mxCell>
        <mxCell id="6VGCQqHkiVJrhonhT-YP-37" value="" style="endArrow=classic;html=1;rounded=0;fontSize=12;startSize=8;endSize=8;curved=1;" edge="1" parent="1">
          <mxGeometry width="50" height="50" relative="1" as="geometry">
            <mxPoint x="426.4100000000001" y="1490" as="sourcePoint" />
            <mxPoint x="426.4100000000001" y="1510" as="targetPoint" />
          </mxGeometry>
        </mxCell>
        <mxCell id="6VGCQqHkiVJrhonhT-YP-38" value="" style="edgeStyle=orthogonalEdgeStyle;rounded=0;orthogonalLoop=1;jettySize=auto;html=1;" edge="1" parent="1" source="6VGCQqHkiVJrhonhT-YP-39" target="6VGCQqHkiVJrhonhT-YP-40">
          <mxGeometry relative="1" as="geometry" />
        </mxCell>
        <mxCell id="6VGCQqHkiVJrhonhT-YP-39" value="When player collides with enemy attack" style="rhombus;whiteSpace=wrap;html=1;" vertex="1" parent="1">
          <mxGeometry x="305" y="1510" width="245" height="90" as="geometry" />
        </mxCell>
        <mxCell id="6VGCQqHkiVJrhonhT-YP-40" value="Reduce Player&#39;s HP based on attack damage" style="whiteSpace=wrap;html=1;" vertex="1" parent="1">
          <mxGeometry x="367" y="1650" width="120" height="60" as="geometry" />
        </mxCell>
        <mxCell id="6VGCQqHkiVJrhonhT-YP-41" value="" style="endArrow=classic;html=1;rounded=0;fontSize=12;startSize=8;endSize=8;curved=1;" edge="1" parent="1">
          <mxGeometry width="50" height="50" relative="1" as="geometry">
            <mxPoint x="716.4100000000001" y="1490" as="sourcePoint" />
            <mxPoint x="716.4100000000001" y="1510" as="targetPoint" />
          </mxGeometry>
        </mxCell>
        <mxCell id="6VGCQqHkiVJrhonhT-YP-42" value="" style="edgeStyle=orthogonalEdgeStyle;rounded=0;orthogonalLoop=1;jettySize=auto;html=1;" edge="1" parent="1" source="6VGCQqHkiVJrhonhT-YP-43" target="6VGCQqHkiVJrhonhT-YP-45">
          <mxGeometry relative="1" as="geometry" />
        </mxCell>
        <mxCell id="6VGCQqHkiVJrhonhT-YP-43" value="When Player HP reach 0" style="rhombus;whiteSpace=wrap;html=1;" vertex="1" parent="1">
          <mxGeometry x="595" y="1510" width="245" height="90" as="geometry" />
        </mxCell>
        <mxCell id="6VGCQqHkiVJrhonhT-YP-44" value="" style="edgeStyle=orthogonalEdgeStyle;rounded=0;orthogonalLoop=1;jettySize=auto;html=1;" edge="1" parent="1" source="6VGCQqHkiVJrhonhT-YP-45" target="6VGCQqHkiVJrhonhT-YP-46">
          <mxGeometry relative="1" as="geometry" />
        </mxCell>
        <mxCell id="6VGCQqHkiVJrhonhT-YP-45" value="Play death animation" style="whiteSpace=wrap;html=1;" vertex="1" parent="1">
          <mxGeometry x="657.5" y="1650" width="120" height="60" as="geometry" />
        </mxCell>
        <mxCell id="6VGCQqHkiVJrhonhT-YP-46" value="Bring player to most recent checkpoint(spawn point if there is none)" style="whiteSpace=wrap;html=1;" vertex="1" parent="1">
          <mxGeometry x="641.25" y="1790" width="152.5" height="60" as="geometry" />
        </mxCell>
        <mxCell id="6VGCQqHkiVJrhonhT-YP-47" value="" style="endArrow=classic;html=1;rounded=0;fontSize=12;startSize=8;endSize=8;curved=1;" edge="1" parent="1">
          <mxGeometry width="50" height="50" relative="1" as="geometry">
            <mxPoint x="996.4100000000001" y="1490" as="sourcePoint" />
            <mxPoint x="996.4100000000001" y="1510" as="targetPoint" />
          </mxGeometry>
        </mxCell>
        <mxCell id="6VGCQqHkiVJrhonhT-YP-48" value="" style="edgeStyle=orthogonalEdgeStyle;rounded=0;orthogonalLoop=1;jettySize=auto;html=1;" edge="1" parent="1" source="6VGCQqHkiVJrhonhT-YP-49" target="6VGCQqHkiVJrhonhT-YP-50">
          <mxGeometry relative="1" as="geometry" />
        </mxCell>
        <mxCell id="6VGCQqHkiVJrhonhT-YP-49" value="When player touch&lt;div&gt;end checkpoint&lt;/div&gt;" style="rhombus;whiteSpace=wrap;html=1;" vertex="1" parent="1">
          <mxGeometry x="875" y="1510" width="245" height="90" as="geometry" />
        </mxCell>
        <mxCell id="6VGCQqHkiVJrhonhT-YP-50" value="Bring to next level" style="whiteSpace=wrap;html=1;" vertex="1" parent="1">
          <mxGeometry x="937.5" y="1650" width="120" height="60" as="geometry" />
        </mxCell>
        <mxCell id="6VGCQqHkiVJrhonhT-YP-51" value="" style="endArrow=classic;html=1;rounded=0;fontSize=12;startSize=8;endSize=8;curved=1;" edge="1" parent="1">
          <mxGeometry width="50" height="50" relative="1" as="geometry">
            <mxPoint x="1301.41" y="1490" as="sourcePoint" />
            <mxPoint x="1301.41" y="1510" as="targetPoint" />
          </mxGeometry>
        </mxCell>
        <mxCell id="6VGCQqHkiVJrhonhT-YP-52" value="" style="edgeStyle=orthogonalEdgeStyle;rounded=0;orthogonalLoop=1;jettySize=auto;html=1;" edge="1" parent="1" source="6VGCQqHkiVJrhonhT-YP-54" target="6VGCQqHkiVJrhonhT-YP-55">
          <mxGeometry relative="1" as="geometry" />
        </mxCell>
        <mxCell id="6VGCQqHkiVJrhonhT-YP-53" value="" style="edgeStyle=orthogonalEdgeStyle;rounded=0;orthogonalLoop=1;jettySize=auto;html=1;" edge="1" parent="1" source="6VGCQqHkiVJrhonhT-YP-54" target="6VGCQqHkiVJrhonhT-YP-56">
          <mxGeometry relative="1" as="geometry" />
        </mxCell>
        <mxCell id="6VGCQqHkiVJrhonhT-YP-54" value="When an enemy is defeated" style="rhombus;whiteSpace=wrap;html=1;" vertex="1" parent="1">
          <mxGeometry x="1180" y="1510" width="245" height="90" as="geometry" />
        </mxCell>
        <mxCell id="6VGCQqHkiVJrhonhT-YP-55" value="Give player 100 coins" style="whiteSpace=wrap;html=1;" vertex="1" parent="1">
          <mxGeometry x="1100" y="1720" width="120" height="60" as="geometry" />
        </mxCell>
        <mxCell id="6VGCQqHkiVJrhonhT-YP-56" value="Give player 250 coins" style="whiteSpace=wrap;html=1;" vertex="1" parent="1">
          <mxGeometry x="1390" y="1720" width="120" height="60" as="geometry" />
        </mxCell>
        <mxCell id="6VGCQqHkiVJrhonhT-YP-57" value="Normal" style="text;html=1;align=center;verticalAlign=middle;whiteSpace=wrap;rounded=0;" vertex="1" parent="1">
          <mxGeometry x="1150" y="1675" width="60" height="30" as="geometry" />
        </mxCell>
        <mxCell id="6VGCQqHkiVJrhonhT-YP-58" value="Boss" style="text;html=1;align=center;verticalAlign=middle;whiteSpace=wrap;rounded=0;" vertex="1" parent="1">
          <mxGeometry x="1440" y="1675" width="60" height="30" as="geometry" />
        </mxCell>
        <mxCell id="6VGCQqHkiVJrhonhT-YP-59" value="" style="endArrow=classic;html=1;rounded=0;fontSize=12;startSize=8;endSize=8;curved=1;" edge="1" parent="1">
          <mxGeometry width="50" height="50" relative="1" as="geometry">
            <mxPoint x="1681.4099999999999" y="1490" as="sourcePoint" />
            <mxPoint x="1681.4099999999999" y="1510" as="targetPoint" />
          </mxGeometry>
        </mxCell>
        <mxCell id="6VGCQqHkiVJrhonhT-YP-60" value="" style="edgeStyle=orthogonalEdgeStyle;rounded=0;orthogonalLoop=1;jettySize=auto;html=1;" edge="1" parent="1" source="6VGCQqHkiVJrhonhT-YP-61" target="6VGCQqHkiVJrhonhT-YP-63">
          <mxGeometry relative="1" as="geometry" />
        </mxCell>
        <mxCell id="6VGCQqHkiVJrhonhT-YP-61" value="When player press RMB (Dodge)" style="rhombus;whiteSpace=wrap;html=1;" vertex="1" parent="1">
          <mxGeometry x="1560" y="1510" width="245" height="90" as="geometry" />
        </mxCell>
        <mxCell id="6VGCQqHkiVJrhonhT-YP-62" value="" style="edgeStyle=orthogonalEdgeStyle;rounded=0;orthogonalLoop=1;jettySize=auto;html=1;" edge="1" parent="1" source="6VGCQqHkiVJrhonhT-YP-63" target="6VGCQqHkiVJrhonhT-YP-149">
          <mxGeometry relative="1" as="geometry" />
        </mxCell>
        <mxCell id="6VGCQqHkiVJrhonhT-YP-63" value="Players perform a dash towards the direction they are currently facing" style="whiteSpace=wrap;html=1;" vertex="1" parent="1">
          <mxGeometry x="1622.5" y="1640" width="120" height="60" as="geometry" />
        </mxCell>
        <mxCell id="6VGCQqHkiVJrhonhT-YP-64" value="" style="endArrow=classic;html=1;rounded=0;fontSize=12;startSize=8;endSize=8;curved=1;" edge="1" parent="1">
          <mxGeometry width="50" height="50" relative="1" as="geometry">
            <mxPoint x="2059.41" y="1490" as="sourcePoint" />
            <mxPoint x="2059.41" y="1510" as="targetPoint" />
          </mxGeometry>
        </mxCell>
        <mxCell id="6VGCQqHkiVJrhonhT-YP-65" value="" style="edgeStyle=orthogonalEdgeStyle;rounded=0;orthogonalLoop=1;jettySize=auto;html=1;" edge="1" parent="1" source="6VGCQqHkiVJrhonhT-YP-66" target="6VGCQqHkiVJrhonhT-YP-70">
          <mxGeometry relative="1" as="geometry" />
        </mxCell>
        <mxCell id="6VGCQqHkiVJrhonhT-YP-66" value="When player press ability weapon" style="rhombus;whiteSpace=wrap;html=1;" vertex="1" parent="1">
          <mxGeometry x="1938" y="1510" width="245" height="90" as="geometry" />
        </mxCell>
        <mxCell id="6VGCQqHkiVJrhonhT-YP-67" value="" style="edgeStyle=orthogonalEdgeStyle;rounded=0;orthogonalLoop=1;jettySize=auto;html=1;" edge="1" parent="1" source="6VGCQqHkiVJrhonhT-YP-70" target="6VGCQqHkiVJrhonhT-YP-72">
          <mxGeometry relative="1" as="geometry" />
        </mxCell>
        <mxCell id="6VGCQqHkiVJrhonhT-YP-68" value="" style="edgeStyle=orthogonalEdgeStyle;rounded=0;orthogonalLoop=1;jettySize=auto;html=1;" edge="1" parent="1" source="6VGCQqHkiVJrhonhT-YP-70" target="6VGCQqHkiVJrhonhT-YP-74">
          <mxGeometry relative="1" as="geometry" />
        </mxCell>
        <mxCell id="6VGCQqHkiVJrhonhT-YP-69" value="" style="edgeStyle=orthogonalEdgeStyle;rounded=0;orthogonalLoop=1;jettySize=auto;html=1;" edge="1" parent="1" source="6VGCQqHkiVJrhonhT-YP-70" target="6VGCQqHkiVJrhonhT-YP-76">
          <mxGeometry relative="1" as="geometry" />
        </mxCell>
        <mxCell id="6VGCQqHkiVJrhonhT-YP-70" value="Check current weapon type" style="rhombus;whiteSpace=wrap;html=1;" vertex="1" parent="1">
          <mxGeometry x="1938" y="1660" width="245" height="91" as="geometry" />
        </mxCell>
        <mxCell id="6VGCQqHkiVJrhonhT-YP-71" value="" style="edgeStyle=orthogonalEdgeStyle;rounded=0;orthogonalLoop=1;jettySize=auto;html=1;" edge="1" parent="1" source="6VGCQqHkiVJrhonhT-YP-72" target="6VGCQqHkiVJrhonhT-YP-81">
          <mxGeometry relative="1" as="geometry" />
        </mxCell>
        <mxCell id="6VGCQqHkiVJrhonhT-YP-72" value="Increase fire speed for X amount of sec" style="whiteSpace=wrap;html=1;" vertex="1" parent="1">
          <mxGeometry x="1840" y="1890" width="120" height="60" as="geometry" />
        </mxCell>
        <mxCell id="6VGCQqHkiVJrhonhT-YP-73" value="" style="edgeStyle=orthogonalEdgeStyle;rounded=0;orthogonalLoop=1;jettySize=auto;html=1;" edge="1" parent="1" source="6VGCQqHkiVJrhonhT-YP-74">
          <mxGeometry relative="1" as="geometry">
            <mxPoint x="2060.5" y="2030" as="targetPoint" />
          </mxGeometry>
        </mxCell>
        <mxCell id="6VGCQqHkiVJrhonhT-YP-74" value="Reduce reload speed for X amount of sec" style="whiteSpace=wrap;html=1;" vertex="1" parent="1">
          <mxGeometry x="2000.5" y="1890" width="120" height="60" as="geometry" />
        </mxCell>
        <mxCell id="6VGCQqHkiVJrhonhT-YP-75" value="" style="edgeStyle=orthogonalEdgeStyle;rounded=0;orthogonalLoop=1;jettySize=auto;html=1;" edge="1" parent="1" source="6VGCQqHkiVJrhonhT-YP-76">
          <mxGeometry relative="1" as="geometry">
            <mxPoint x="2220.000000000001" y="2030" as="targetPoint" />
          </mxGeometry>
        </mxCell>
        <mxCell id="6VGCQqHkiVJrhonhT-YP-76" value="Increase damage and range of weapon for X amount of sec" style="whiteSpace=wrap;html=1;" vertex="1" parent="1">
          <mxGeometry x="2160" y="1890" width="120" height="60" as="geometry" />
        </mxCell>
        <mxCell id="6VGCQqHkiVJrhonhT-YP-77" value="Handgun" style="text;html=1;align=center;verticalAlign=middle;whiteSpace=wrap;rounded=0;" vertex="1" parent="1">
          <mxGeometry x="1900" y="1840" width="60" height="30" as="geometry" />
        </mxCell>
        <mxCell id="6VGCQqHkiVJrhonhT-YP-78" value="AR" style="text;html=1;align=center;verticalAlign=middle;whiteSpace=wrap;rounded=0;" vertex="1" parent="1">
          <mxGeometry x="2045" y="1840" width="60" height="30" as="geometry" />
        </mxCell>
        <mxCell id="6VGCQqHkiVJrhonhT-YP-79" value="Melee" style="text;html=1;align=center;verticalAlign=middle;whiteSpace=wrap;rounded=0;" vertex="1" parent="1">
          <mxGeometry x="2210" y="1840" width="60" height="30" as="geometry" />
        </mxCell>
        <mxCell id="6VGCQqHkiVJrhonhT-YP-80" value="" style="edgeStyle=orthogonalEdgeStyle;rounded=0;orthogonalLoop=1;jettySize=auto;html=1;" edge="1" parent="1" source="6VGCQqHkiVJrhonhT-YP-81" target="6VGCQqHkiVJrhonhT-YP-150">
          <mxGeometry relative="1" as="geometry" />
        </mxCell>
        <mxCell id="6VGCQqHkiVJrhonhT-YP-81" value="Start Cooldown Timer for X amount of sec" style="whiteSpace=wrap;html=1;" vertex="1" parent="1">
          <mxGeometry x="1840" y="2030" width="120" height="60" as="geometry" />
        </mxCell>
        <mxCell id="6VGCQqHkiVJrhonhT-YP-82" value="Start Cooldown Timer for X amount of sec" style="whiteSpace=wrap;html=1;" vertex="1" parent="1">
          <mxGeometry x="2000.5" y="2030" width="120" height="60" as="geometry" />
        </mxCell>
        <mxCell id="6VGCQqHkiVJrhonhT-YP-83" value="Start Cooldown Timer for X amount of sec" style="whiteSpace=wrap;html=1;" vertex="1" parent="1">
          <mxGeometry x="2160" y="2030" width="120" height="60" as="geometry" />
        </mxCell>
        <mxCell id="6VGCQqHkiVJrhonhT-YP-84" value="" style="endArrow=none;html=1;rounded=0;fontSize=12;startSize=8;endSize=8;curved=1;" edge="1" parent="1">
          <mxGeometry width="50" height="50" relative="1" as="geometry">
            <mxPoint x="-325" y="1489" as="sourcePoint" />
            <mxPoint x="2663" y="1489" as="targetPoint" />
          </mxGeometry>
        </mxCell>
        <mxCell id="6VGCQqHkiVJrhonhT-YP-85" value="" style="endArrow=none;html=1;rounded=0;fontSize=12;startSize=8;endSize=8;curved=1;" edge="1" parent="1">
          <mxGeometry width="50" height="50" relative="1" as="geometry">
            <mxPoint x="-325" y="1490" as="sourcePoint" />
            <mxPoint x="3729.7931034482754" y="1489" as="targetPoint" />
          </mxGeometry>
        </mxCell>
        <mxCell id="6VGCQqHkiVJrhonhT-YP-86" value="" style="endArrow=classic;html=1;rounded=0;fontSize=12;startSize=8;endSize=8;curved=1;" edge="1" parent="1">
          <mxGeometry width="50" height="50" relative="1" as="geometry">
            <mxPoint x="2440.41" y="1490" as="sourcePoint" />
            <mxPoint x="2440.41" y="1510" as="targetPoint" />
          </mxGeometry>
        </mxCell>
        <mxCell id="6VGCQqHkiVJrhonhT-YP-87" value="" style="edgeStyle=orthogonalEdgeStyle;rounded=0;orthogonalLoop=1;jettySize=auto;html=1;" edge="1" parent="1" source="6VGCQqHkiVJrhonhT-YP-88" target="6VGCQqHkiVJrhonhT-YP-90">
          <mxGeometry relative="1" as="geometry" />
        </mxCell>
        <mxCell id="6VGCQqHkiVJrhonhT-YP-88" value="When player enters a new room" style="rhombus;whiteSpace=wrap;html=1;" vertex="1" parent="1">
          <mxGeometry x="2318" y="1510" width="245" height="90" as="geometry" />
        </mxCell>
        <mxCell id="6VGCQqHkiVJrhonhT-YP-89" value="" style="edgeStyle=orthogonalEdgeStyle;rounded=0;orthogonalLoop=1;jettySize=auto;html=1;" edge="1" parent="1" source="6VGCQqHkiVJrhonhT-YP-90" target="6VGCQqHkiVJrhonhT-YP-92">
          <mxGeometry relative="1" as="geometry" />
        </mxCell>
        <mxCell id="6VGCQqHkiVJrhonhT-YP-90" value="Force player to be in that room until all enemies are eliminated" style="whiteSpace=wrap;html=1;" vertex="1" parent="1">
          <mxGeometry x="2380.5" y="1620" width="120" height="60" as="geometry" />
        </mxCell>
        <mxCell id="6VGCQqHkiVJrhonhT-YP-91" value="" style="edgeStyle=orthogonalEdgeStyle;rounded=0;orthogonalLoop=1;jettySize=auto;html=1;" edge="1" parent="1" source="6VGCQqHkiVJrhonhT-YP-92" target="6VGCQqHkiVJrhonhT-YP-125">
          <mxGeometry relative="1" as="geometry" />
        </mxCell>
        <mxCell id="6VGCQqHkiVJrhonhT-YP-92" value="Door to the next room are unable to unlock till the prior requirements are fufilled" style="whiteSpace=wrap;html=1;" vertex="1" parent="1">
          <mxGeometry x="2375.25" y="1705" width="130.5" height="80" as="geometry" />
        </mxCell>
        <mxCell id="6VGCQqHkiVJrhonhT-YP-93" value="" style="endArrow=classic;html=1;rounded=0;fontSize=12;startSize=8;endSize=8;curved=1;" edge="1" parent="1">
          <mxGeometry width="50" height="50" relative="1" as="geometry">
            <mxPoint x="2759.31" y="1490" as="sourcePoint" />
            <mxPoint x="2759.31" y="1510" as="targetPoint" />
          </mxGeometry>
        </mxCell>
        <mxCell id="6VGCQqHkiVJrhonhT-YP-94" value="" style="edgeStyle=orthogonalEdgeStyle;rounded=0;orthogonalLoop=1;jettySize=auto;html=1;" edge="1" parent="1" source="6VGCQqHkiVJrhonhT-YP-95" target="6VGCQqHkiVJrhonhT-YP-97">
          <mxGeometry relative="1" as="geometry" />
        </mxCell>
        <mxCell id="6VGCQqHkiVJrhonhT-YP-95" value="When the Escape key is pressed" style="rhombus;whiteSpace=wrap;html=1;" vertex="1" parent="1">
          <mxGeometry x="2637" y="1510" width="245" height="90" as="geometry" />
        </mxCell>
        <mxCell id="6VGCQqHkiVJrhonhT-YP-96" value="" style="edgeStyle=orthogonalEdgeStyle;rounded=0;orthogonalLoop=1;jettySize=auto;html=1;" edge="1" parent="1" source="6VGCQqHkiVJrhonhT-YP-97" target="6VGCQqHkiVJrhonhT-YP-104">
          <mxGeometry relative="1" as="geometry" />
        </mxCell>
        <mxCell id="6VGCQqHkiVJrhonhT-YP-97" value="freeze game&amp;nbsp;&amp;nbsp;" style="whiteSpace=wrap;html=1;" vertex="1" parent="1">
          <mxGeometry x="2699.5" y="1640" width="120" height="60" as="geometry" />
        </mxCell>
        <mxCell id="6VGCQqHkiVJrhonhT-YP-98" value="" style="edgeStyle=orthogonalEdgeStyle;rounded=0;orthogonalLoop=1;jettySize=auto;html=1;" edge="1" parent="1" source="6VGCQqHkiVJrhonhT-YP-104">
          <mxGeometry relative="1" as="geometry">
            <mxPoint x="2539" y="1877.0043887147335" as="targetPoint" />
          </mxGeometry>
        </mxCell>
        <mxCell id="6VGCQqHkiVJrhonhT-YP-99" value="" style="edgeStyle=orthogonalEdgeStyle;rounded=0;orthogonalLoop=1;jettySize=auto;html=1;" edge="1" parent="1" source="6VGCQqHkiVJrhonhT-YP-104" target="6VGCQqHkiVJrhonhT-YP-107">
          <mxGeometry relative="1" as="geometry" />
        </mxCell>
        <mxCell id="6VGCQqHkiVJrhonhT-YP-100" value="" style="edgeStyle=orthogonalEdgeStyle;rounded=0;orthogonalLoop=1;jettySize=auto;html=1;" edge="1" parent="1" source="6VGCQqHkiVJrhonhT-YP-104" target="6VGCQqHkiVJrhonhT-YP-107">
          <mxGeometry relative="1" as="geometry" />
        </mxCell>
        <mxCell id="6VGCQqHkiVJrhonhT-YP-101" value="" style="edgeStyle=orthogonalEdgeStyle;rounded=0;orthogonalLoop=1;jettySize=auto;html=1;" edge="1" parent="1" source="6VGCQqHkiVJrhonhT-YP-104" target="6VGCQqHkiVJrhonhT-YP-107">
          <mxGeometry relative="1" as="geometry" />
        </mxCell>
        <mxCell id="6VGCQqHkiVJrhonhT-YP-102" value="" style="edgeStyle=orthogonalEdgeStyle;rounded=0;orthogonalLoop=1;jettySize=auto;html=1;" edge="1" parent="1" source="6VGCQqHkiVJrhonhT-YP-104" target="6VGCQqHkiVJrhonhT-YP-107">
          <mxGeometry relative="1" as="geometry" />
        </mxCell>
        <mxCell id="6VGCQqHkiVJrhonhT-YP-103" value="" style="edgeStyle=orthogonalEdgeStyle;rounded=0;orthogonalLoop=1;jettySize=auto;html=1;" edge="1" parent="1" source="6VGCQqHkiVJrhonhT-YP-104" target="6VGCQqHkiVJrhonhT-YP-109">
          <mxGeometry relative="1" as="geometry" />
        </mxCell>
        <mxCell id="6VGCQqHkiVJrhonhT-YP-104" value="Display pause screen&lt;div&gt;with option&amp;nbsp;&lt;/div&gt;" style="whiteSpace=wrap;html=1;" vertex="1" parent="1">
          <mxGeometry x="2668.74" y="1748" width="120" height="60" as="geometry" />
        </mxCell>
        <mxCell id="6VGCQqHkiVJrhonhT-YP-105" value="" style="edgeStyle=orthogonalEdgeStyle;rounded=0;orthogonalLoop=1;jettySize=auto;html=1;" edge="1" parent="1" source="6VGCQqHkiVJrhonhT-YP-106" target="6VGCQqHkiVJrhonhT-YP-142">
          <mxGeometry relative="1" as="geometry" />
        </mxCell>
        <mxCell id="6VGCQqHkiVJrhonhT-YP-106" value="When Player pressed&lt;div&gt;&amp;nbsp;resume button or ESC&amp;nbsp;&lt;/div&gt;" style="rhombus;whiteSpace=wrap;html=1;" vertex="1" parent="1">
          <mxGeometry x="2459" y="1877" width="159.5" height="70" as="geometry" />
        </mxCell>
        <mxCell id="6VGCQqHkiVJrhonhT-YP-107" value="When player&amp;nbsp;&lt;div&gt;pressed quit&amp;nbsp;&lt;/div&gt;" style="rhombus;whiteSpace=wrap;html=1;" vertex="1" parent="1">
          <mxGeometry x="2834.24" y="1877" width="140.5" height="80" as="geometry" />
        </mxCell>
        <mxCell id="6VGCQqHkiVJrhonhT-YP-108" value="" style="edgeStyle=orthogonalEdgeStyle;rounded=0;orthogonalLoop=1;jettySize=auto;html=1;" edge="1" parent="1" source="6VGCQqHkiVJrhonhT-YP-109" target="6VGCQqHkiVJrhonhT-YP-112">
          <mxGeometry relative="1" as="geometry" />
        </mxCell>
        <mxCell id="6VGCQqHkiVJrhonhT-YP-109" value="When player&lt;div&gt;pressed restart&lt;/div&gt;" style="rhombus;whiteSpace=wrap;html=1;" vertex="1" parent="1">
          <mxGeometry x="2663.49" y="1877" width="130.5" height="80" as="geometry" />
        </mxCell>
        <mxCell id="6VGCQqHkiVJrhonhT-YP-110" value="" style="edgeStyle=orthogonalEdgeStyle;rounded=0;orthogonalLoop=1;jettySize=auto;html=1;" edge="1" parent="1" source="6VGCQqHkiVJrhonhT-YP-112" target="6VGCQqHkiVJrhonhT-YP-113">
          <mxGeometry relative="1" as="geometry" />
        </mxCell>
        <mxCell id="6VGCQqHkiVJrhonhT-YP-111" value="" style="edgeStyle=orthogonalEdgeStyle;rounded=0;orthogonalLoop=1;jettySize=auto;html=1;exitX=0.559;exitY=0.89;exitDx=0;exitDy=0;exitPerimeter=0;" edge="1" parent="1" source="6VGCQqHkiVJrhonhT-YP-112" target="6VGCQqHkiVJrhonhT-YP-114">
          <mxGeometry relative="1" as="geometry">
            <mxPoint x="2719.238461538461" y="2106.986422045387" as="sourcePoint" />
            <Array as="points">
              <mxPoint x="2729.24" y="2058" />
              <mxPoint x="2729.24" y="2107" />
              <mxPoint x="2810.24" y="2107" />
            </Array>
          </mxGeometry>
        </mxCell>
        <mxCell id="6VGCQqHkiVJrhonhT-YP-112" value="Confirmation&lt;div&gt;for restart&lt;/div&gt;" style="rhombus;whiteSpace=wrap;html=1;" vertex="1" parent="1">
          <mxGeometry x="2663.49" y="1987" width="130.5" height="80" as="geometry" />
        </mxCell>
        <mxCell id="6VGCQqHkiVJrhonhT-YP-113" value="Restart to the original versio" style="whiteSpace=wrap;html=1;" vertex="1" parent="1">
          <mxGeometry x="2669.24" y="2277" width="120" height="60" as="geometry" />
        </mxCell>
        <mxCell id="6VGCQqHkiVJrhonhT-YP-114" value="Return to pause menu" style="whiteSpace=wrap;html=1;" vertex="1" parent="1">
          <mxGeometry x="2749.24" y="2146.9999999999995" width="120" height="60" as="geometry" />
        </mxCell>
        <mxCell id="6VGCQqHkiVJrhonhT-YP-115" value="Yes" style="text;html=1;align=center;verticalAlign=middle;whiteSpace=wrap;rounded=0;" vertex="1" parent="1">
          <mxGeometry x="2659.24" y="2087" width="60" height="30" as="geometry" />
        </mxCell>
        <mxCell id="6VGCQqHkiVJrhonhT-YP-116" value="No" style="text;html=1;align=center;verticalAlign=middle;resizable=0;points=[];autosize=1;strokeColor=none;fillColor=none;" vertex="1" parent="1">
          <mxGeometry x="2749.24" y="2085" width="40" height="30" as="geometry" />
        </mxCell>
        <mxCell id="6VGCQqHkiVJrhonhT-YP-117" value="" style="edgeStyle=orthogonalEdgeStyle;rounded=0;orthogonalLoop=1;jettySize=auto;html=1;" edge="1" parent="1" target="6VGCQqHkiVJrhonhT-YP-120">
          <mxGeometry relative="1" as="geometry">
            <mxPoint x="2904.49" y="1957" as="sourcePoint" />
          </mxGeometry>
        </mxCell>
        <mxCell id="6VGCQqHkiVJrhonhT-YP-118" value="" style="edgeStyle=orthogonalEdgeStyle;rounded=0;orthogonalLoop=1;jettySize=auto;html=1;" edge="1" parent="1" source="6VGCQqHkiVJrhonhT-YP-120" target="6VGCQqHkiVJrhonhT-YP-121">
          <mxGeometry relative="1" as="geometry" />
        </mxCell>
        <mxCell id="6VGCQqHkiVJrhonhT-YP-119" value="" style="edgeStyle=orthogonalEdgeStyle;rounded=0;orthogonalLoop=1;jettySize=auto;html=1;exitX=0.559;exitY=0.89;exitDx=0;exitDy=0;exitPerimeter=0;" edge="1" parent="1" source="6VGCQqHkiVJrhonhT-YP-120">
          <mxGeometry relative="1" as="geometry">
            <mxPoint x="2894.488461538461" y="2106.986422045387" as="sourcePoint" />
            <Array as="points">
              <mxPoint x="2904.49" y="2058" />
              <mxPoint x="2904.49" y="2107" />
              <mxPoint x="2985.49" y="2107" />
            </Array>
            <mxPoint x="2985.4799999999996" y="2146.9999999999995" as="targetPoint" />
          </mxGeometry>
        </mxCell>
        <mxCell id="6VGCQqHkiVJrhonhT-YP-120" value="Confirmation&lt;div&gt;for restart&lt;/div&gt;" style="rhombus;whiteSpace=wrap;html=1;" vertex="1" parent="1">
          <mxGeometry x="2838.74" y="1987" width="130.5" height="80" as="geometry" />
        </mxCell>
        <mxCell id="6VGCQqHkiVJrhonhT-YP-121" value="Exit the Game&amp;nbsp;" style="whiteSpace=wrap;html=1;" vertex="1" parent="1">
          <mxGeometry x="2843.99" y="2277" width="120" height="60" as="geometry" />
        </mxCell>
        <mxCell id="6VGCQqHkiVJrhonhT-YP-122" value="Return to pause menu" style="whiteSpace=wrap;html=1;" vertex="1" parent="1">
          <mxGeometry x="2955.25" y="2149.9999999999995" width="120" height="60" as="geometry" />
        </mxCell>
        <mxCell id="6VGCQqHkiVJrhonhT-YP-123" value="Yes" style="text;html=1;align=center;verticalAlign=middle;whiteSpace=wrap;rounded=0;" vertex="1" parent="1">
          <mxGeometry x="2834.49" y="2087" width="60" height="30" as="geometry" />
        </mxCell>
        <mxCell id="6VGCQqHkiVJrhonhT-YP-124" value="No" style="text;html=1;align=center;verticalAlign=middle;resizable=0;points=[];autosize=1;strokeColor=none;fillColor=none;" vertex="1" parent="1">
          <mxGeometry x="2924.49" y="2085" width="40" height="30" as="geometry" />
        </mxCell>
        <mxCell id="6VGCQqHkiVJrhonhT-YP-125" value="Door to the previous room are also temporary closed off" style="whiteSpace=wrap;html=1;" vertex="1" parent="1">
          <mxGeometry x="2375.75" y="1820" width="130" height="70" as="geometry" />
        </mxCell>
        <mxCell id="6VGCQqHkiVJrhonhT-YP-126" value="" style="endArrow=classic;html=1;rounded=0;fontSize=12;startSize=8;endSize=8;curved=1;" edge="1" parent="1">
          <mxGeometry width="50" height="50" relative="1" as="geometry">
            <mxPoint x="3298.31" y="1491" as="sourcePoint" />
            <mxPoint x="3298.31" y="1511" as="targetPoint" />
          </mxGeometry>
        </mxCell>
        <mxCell id="6VGCQqHkiVJrhonhT-YP-127" value="" style="edgeStyle=orthogonalEdgeStyle;rounded=0;orthogonalLoop=1;jettySize=auto;html=1;" edge="1" parent="1" source="6VGCQqHkiVJrhonhT-YP-128" target="6VGCQqHkiVJrhonhT-YP-130">
          <mxGeometry relative="1" as="geometry" />
        </mxCell>
        <mxCell id="6VGCQqHkiVJrhonhT-YP-128" value="Enemies Interaction" style="rounded=0;whiteSpace=wrap;html=1;" vertex="1" parent="1">
          <mxGeometry x="3189" y="1511" width="217.5" height="60" as="geometry" />
        </mxCell>
        <mxCell id="6VGCQqHkiVJrhonhT-YP-129" value="" style="edgeStyle=orthogonalEdgeStyle;rounded=0;orthogonalLoop=1;jettySize=auto;html=1;" edge="1" parent="1" source="6VGCQqHkiVJrhonhT-YP-130" target="6VGCQqHkiVJrhonhT-YP-133">
          <mxGeometry relative="1" as="geometry" />
        </mxCell>
        <mxCell id="6VGCQqHkiVJrhonhT-YP-130" value="When the player enter the enemies FOV,&amp;nbsp; begin to target towards the player" style="whiteSpace=wrap;html=1;rounded=0;" vertex="1" parent="1">
          <mxGeometry x="3237.75" y="1621" width="120" height="60" as="geometry" />
        </mxCell>
        <mxCell id="6VGCQqHkiVJrhonhT-YP-131" value="" style="edgeStyle=orthogonalEdgeStyle;rounded=0;orthogonalLoop=1;jettySize=auto;html=1;" edge="1" parent="1" source="6VGCQqHkiVJrhonhT-YP-133" target="6VGCQqHkiVJrhonhT-YP-135">
          <mxGeometry relative="1" as="geometry" />
        </mxCell>
        <mxCell id="6VGCQqHkiVJrhonhT-YP-132" value="" style="edgeStyle=orthogonalEdgeStyle;rounded=0;orthogonalLoop=1;jettySize=auto;html=1;" edge="1" parent="1" source="6VGCQqHkiVJrhonhT-YP-133" target="6VGCQqHkiVJrhonhT-YP-135">
          <mxGeometry relative="1" as="geometry" />
        </mxCell>
        <mxCell id="6VGCQqHkiVJrhonhT-YP-133" value="Melee or&amp;nbsp;&lt;div&gt;Projectile enemy&lt;/div&gt;" style="rhombus;whiteSpace=wrap;html=1;rounded=0;" vertex="1" parent="1">
          <mxGeometry x="3229.62" y="1714" width="136.25" height="85" as="geometry" />
        </mxCell>
        <mxCell id="6VGCQqHkiVJrhonhT-YP-134" value="" style="edgeStyle=orthogonalEdgeStyle;rounded=0;orthogonalLoop=1;jettySize=auto;html=1;" edge="1" parent="1" source="6VGCQqHkiVJrhonhT-YP-135" target="6VGCQqHkiVJrhonhT-YP-140">
          <mxGeometry relative="1" as="geometry" />
        </mxCell>
        <mxCell id="6VGCQqHkiVJrhonhT-YP-135" value="Enemy start to walk toward player until they are in the effective attack range" style="whiteSpace=wrap;html=1;rounded=0;" vertex="1" parent="1">
          <mxGeometry x="3152.005" y="1838" width="120" height="60" as="geometry" />
        </mxCell>
        <mxCell id="6VGCQqHkiVJrhonhT-YP-136" value="Melee" style="text;html=1;align=center;verticalAlign=middle;whiteSpace=wrap;rounded=0;" vertex="1" parent="1">
          <mxGeometry x="3217" y="1799" width="60" height="30" as="geometry" />
        </mxCell>
        <mxCell id="6VGCQqHkiVJrhonhT-YP-137" value="" style="edgeStyle=orthogonalEdgeStyle;rounded=0;orthogonalLoop=1;jettySize=auto;html=1;" edge="1" parent="1">
          <mxGeometry relative="1" as="geometry">
            <mxPoint x="3297" y="1819.0042528735637" as="sourcePoint" />
            <mxPoint x="3380" y="1840" as="targetPoint" />
          </mxGeometry>
        </mxCell>
        <mxCell id="6VGCQqHkiVJrhonhT-YP-138" value="Enemy begin to fire projectile. Depending on tier, attacks will be easier/harder to dodge" style="whiteSpace=wrap;html=1;rounded=0;" vertex="1" parent="1">
          <mxGeometry x="3315" y="1840" width="129.99" height="70" as="geometry" />
        </mxCell>
        <mxCell id="6VGCQqHkiVJrhonhT-YP-139" value="Projectile" style="text;html=1;align=center;verticalAlign=middle;whiteSpace=wrap;rounded=0;" vertex="1" parent="1">
          <mxGeometry x="3305.87" y="1799" width="60" height="30" as="geometry" />
        </mxCell>
        <mxCell id="6VGCQqHkiVJrhonhT-YP-140" value="Swing attacks at players(EXP: a sword spinning around enemy with x second for Tier 1)" style="whiteSpace=wrap;html=1;rounded=0;" vertex="1" parent="1">
          <mxGeometry x="3137.01" y="1940" width="150" height="80" as="geometry" />
        </mxCell>
        <mxCell id="6VGCQqHkiVJrhonhT-YP-141" value="" style="edgeStyle=orthogonalEdgeStyle;rounded=0;orthogonalLoop=1;jettySize=auto;html=1;" edge="1" parent="1" source="6VGCQqHkiVJrhonhT-YP-142" target="6VGCQqHkiVJrhonhT-YP-143">
          <mxGeometry relative="1" as="geometry" />
        </mxCell>
        <mxCell id="6VGCQqHkiVJrhonhT-YP-142" value="Unfreeze game" style="whiteSpace=wrap;html=1;" vertex="1" parent="1">
          <mxGeometry x="2478.75" y="1987" width="120" height="60" as="geometry" />
        </mxCell>
        <mxCell id="6VGCQqHkiVJrhonhT-YP-143" value="Return to normal gameplay" style="whiteSpace=wrap;html=1;" vertex="1" parent="1">
          <mxGeometry x="2478.75" y="2127" width="120" height="60" as="geometry" />
        </mxCell>
        <mxCell id="6VGCQqHkiVJrhonhT-YP-144" value="" style="edgeStyle=orthogonalEdgeStyle;rounded=0;orthogonalLoop=1;jettySize=auto;html=1;" edge="1" parent="1" source="6VGCQqHkiVJrhonhT-YP-145" target="6VGCQqHkiVJrhonhT-YP-147">
          <mxGeometry relative="1" as="geometry" />
        </mxCell>
        <mxCell id="6VGCQqHkiVJrhonhT-YP-145" value="Interac button press near shop&amp;nbsp;" style="rhombus;whiteSpace=wrap;html=1;" vertex="1" parent="1">
          <mxGeometry x="-525" y="1510" width="160" height="79" as="geometry" />
        </mxCell>
        <mxCell id="6VGCQqHkiVJrhonhT-YP-146" value="" style="edgeStyle=orthogonalEdgeStyle;rounded=0;orthogonalLoop=1;jettySize=auto;html=1;" edge="1" parent="1" source="6VGCQqHkiVJrhonhT-YP-147" target="6VGCQqHkiVJrhonhT-YP-148">
          <mxGeometry relative="1" as="geometry" />
        </mxCell>
        <mxCell id="6VGCQqHkiVJrhonhT-YP-147" value="Open Shop menu" style="whiteSpace=wrap;html=1;" vertex="1" parent="1">
          <mxGeometry x="-505" y="1654" width="120" height="60" as="geometry" />
        </mxCell>
        <mxCell id="6VGCQqHkiVJrhonhT-YP-148" value="Present upgrade and items option" style="whiteSpace=wrap;html=1;" vertex="1" parent="1">
          <mxGeometry x="-505" y="1794" width="120" height="60" as="geometry" />
        </mxCell>
        <mxCell id="6VGCQqHkiVJrhonhT-YP-149" value="Reduce MP by 20" style="whiteSpace=wrap;html=1;" vertex="1" parent="1">
          <mxGeometry x="1622.5" y="1780" width="120" height="60" as="geometry" />
        </mxCell>
        <mxCell id="6VGCQqHkiVJrhonhT-YP-150" value="Reduce MP by 20" style="whiteSpace=wrap;html=1;" vertex="1" parent="1">
          <mxGeometry x="1840" y="2170" width="120" height="60" as="geometry" />
        </mxCell>
        <mxCell id="6VGCQqHkiVJrhonhT-YP-151" value="" style="edgeStyle=orthogonalEdgeStyle;rounded=0;orthogonalLoop=1;jettySize=auto;html=1;" edge="1" parent="1" target="6VGCQqHkiVJrhonhT-YP-152">
          <mxGeometry relative="1" as="geometry">
            <mxPoint x="2060.5" y="2090" as="sourcePoint" />
          </mxGeometry>
        </mxCell>
        <mxCell id="6VGCQqHkiVJrhonhT-YP-152" value="Reduce MP by 20" style="whiteSpace=wrap;html=1;" vertex="1" parent="1">
          <mxGeometry x="2000.5" y="2170" width="120" height="60" as="geometry" />
        </mxCell>
        <mxCell id="6VGCQqHkiVJrhonhT-YP-153" value="" style="edgeStyle=orthogonalEdgeStyle;rounded=0;orthogonalLoop=1;jettySize=auto;html=1;" edge="1" parent="1" target="6VGCQqHkiVJrhonhT-YP-154">
          <mxGeometry relative="1" as="geometry">
            <mxPoint x="2220" y="2090" as="sourcePoint" />
          </mxGeometry>
        </mxCell>
        <mxCell id="6VGCQqHkiVJrhonhT-YP-154" value="Reduce MP by 20" style="whiteSpace=wrap;html=1;" vertex="1" parent="1">
          <mxGeometry x="2160" y="2170" width="120" height="60" as="geometry" />
        </mxCell>
        <mxCell id="6VGCQqHkiVJrhonhT-YP-155" value="Player Spawn in to map" style="rounded=1;whiteSpace=wrap;html=1;" vertex="1" parent="1">
          <mxGeometry x="-385" y="1330" width="120" height="60" as="geometry" />
        </mxCell>
      </root>
    </mxGraphModel>
  </diagram>
</mxfile>
